<svg width="1750" height="1000" viewBox="0 0 1750 1000" xmlns="http://www.w3.org/2000/svg" role="img">
<title>Allen&apos;s 13 relations as a bar grid, Freksa&apos;s neighbourhood lattice with computed real examples</title>
<rect x="0" y="0" width="1750" height="1000" fill="#ffffff"/>
<defs><marker id="arrow" viewBox="0 0 10 10" refX="8" refY="5" markerWidth="6" markerHeight="6" orient="auto-start-reverse"><path d="M2 1L8 5L2 9" fill="none" stroke="#73726c" stroke-width="1.5" stroke-linecap="round" stroke-linejoin="round"/></marker><marker id="arrow-uncertain" viewBox="0 0 10 10" refX="8" refY="5" markerWidth="6" markerHeight="6" orient="auto-start-reverse"><path d="M2 1L8 5L2 9" fill="none" stroke="#a03030" stroke-width="1.5" stroke-linecap="round" stroke-linejoin="round"/></marker></defs>

<text x="90" y="42" font-family="Fira Sans" font-weight="500" font-size="15" fill="#2c2c2a">Allens 13 Relationen als Balkenraster</text>
<text x="90" y="60" font-family="Fira Sans" font-size="10.3" fill="#5f5e5a">Balkenform schematisch wie im Original (Abb. 1) — petrol = X (fest), ocher = Y — gelesen als „X &lt;r&gt; Y“; FID/Name/Kultur sind real</text>
<rect x="90.0" y="84.0" width="203.0" height="112.0" rx="6" fill="#fbfbf9" stroke="#888780" stroke-width="1"/>
<text x="98.0" y="98.0" font-family="Fira Sans" font-size="9.3" fill="#5f5e5a">X = FID40 · Bochow 16 (SBK)</text>
<rect x="161.7" y="106.0" width="63.7" height="11" rx="2.5" fill="#1F4E5F"/>
<rect x="241.2" y="121.0" width="47.8" height="11" rx="2.5" fill="#A2560F"/>
<text x="98.0" y="150.0" font-family="Fira Sans" font-size="9.3" fill="#5f5e5a">Y = FID32 · Steckelsdorf 12 (FBG)</text>
<text x="98.0" y="174.0" font-family="Fira Sans" font-weight="600" font-size="14" fill="#1F4E5F">&lt;</text>
<text x="285.0" y="174.0" text-anchor="end" font-family="Fira Sans" font-size="11.5" fill="#5f5e5a">before</text>
<rect x="309.0" y="84.0" width="203.0" height="112.0" rx="6" fill="#fbfbf9" stroke="#888780" stroke-width="1"/>
<text x="317.0" y="98.0" font-family="Fira Sans" font-size="9.3" fill="#5f5e5a">X = FID32 · Steckelsdorf 12 (FBG)</text>
<rect x="380.7" y="106.0" width="63.7" height="11" rx="2.5" fill="#1F4E5F"/>
<rect x="317.0" y="121.0" width="47.8" height="11" rx="2.5" fill="#A2560F"/>
<text x="317.0" y="150.0" font-family="Fira Sans" font-size="9.3" fill="#5f5e5a">Y = FID40 · Bochow 16 (SBK)</text>
<text x="317.0" y="174.0" font-family="Fira Sans" font-weight="600" font-size="14" fill="#1F4E5F">&gt;</text>
<text x="504.0" y="174.0" text-anchor="end" font-family="Fira Sans" font-size="11.5" fill="#5f5e5a">after</text>
<rect x="528.0" y="84.0" width="203.0" height="112.0" rx="6" fill="#fbfbf9" stroke="#888780" stroke-width="1"/>
<text x="536.0" y="98.0" font-family="Fira Sans" font-size="9.3" fill="#5f5e5a">X = FID78 · Nowe Objezierze 7 (SBK)</text>
<rect x="599.7" y="106.0" width="63.7" height="11" rx="2.5" fill="#1F4E5F"/>
<rect x="663.3" y="121.0" width="63.7" height="11" rx="2.5" fill="#A2560F"/>
<text x="536.0" y="150.0" font-family="Fira Sans" font-size="9.3" fill="#5f5e5a">Y = FID153 · Racot 18 (BKK)</text>
<text x="536.0" y="174.0" font-family="Fira Sans" font-weight="600" font-size="14" fill="#1F4E5F">m</text>
<text x="723.0" y="174.0" text-anchor="end" font-family="Fira Sans" font-size="11.5" fill="#5f5e5a">meets</text>
<rect x="747.0" y="84.0" width="203.0" height="112.0" rx="6" fill="#fbfbf9" stroke="#888780" stroke-width="1"/>
<text x="755.0" y="98.0" font-family="Fira Sans" font-size="9.3" fill="#5f5e5a">X = FID153 · Racot 18 (BKK)</text>
<rect x="818.7" y="106.0" width="63.7" height="11" rx="2.5" fill="#1F4E5F"/>
<rect x="755.0" y="121.0" width="63.7" height="11" rx="2.5" fill="#A2560F"/>
<text x="755.0" y="150.0" font-family="Fira Sans" font-size="9.3" fill="#5f5e5a">Y = FID78 · Nowe Objezierze 7 (SBK)</text>
<text x="755.0" y="174.0" font-family="Fira Sans" font-weight="600" font-size="14" fill="#1F4E5F">mi</text>
<text x="942.0" y="174.0" text-anchor="end" font-family="Fira Sans" font-size="11.5" fill="#5f5e5a">met by</text>
<rect x="90.0" y="212.0" width="203.0" height="112.0" rx="6" fill="#fbfbf9" stroke="#888780" stroke-width="1"/>
<text x="98.0" y="226.0" font-family="Fira Sans" font-size="9.3" fill="#5f5e5a">X = FID40 · Bochow 16 (SBK)</text>
<rect x="161.7" y="234.0" width="63.7" height="11" rx="2.5" fill="#1F4E5F"/>
<rect x="201.5" y="249.0" width="71.6" height="11" rx="2.5" fill="#A2560F"/>
<text x="98.0" y="278.0" font-family="Fira Sans" font-size="9.3" fill="#5f5e5a">Y = FID78 · Nowe Objezierze 7 (SBK)</text>
<text x="98.0" y="302.0" font-family="Fira Sans" font-weight="600" font-size="14" fill="#1F4E5F">o</text>
<text x="285.0" y="302.0" text-anchor="end" font-family="Fira Sans" font-size="11.5" fill="#5f5e5a">overlaps</text>
<rect x="309.0" y="212.0" width="203.0" height="112.0" rx="6" fill="#fbfbf9" stroke="#888780" stroke-width="1"/>
<text x="317.0" y="226.0" font-family="Fira Sans" font-size="9.3" fill="#5f5e5a">X = FID78 · Nowe Objezierze 7 (SBK)</text>
<rect x="380.7" y="234.0" width="63.7" height="11" rx="2.5" fill="#1F4E5F"/>
<rect x="356.8" y="249.0" width="55.7" height="11" rx="2.5" fill="#A2560F"/>
<text x="317.0" y="278.0" font-family="Fira Sans" font-size="9.3" fill="#5f5e5a">Y = FID40 · Bochow 16 (SBK)</text>
<text x="317.0" y="302.0" font-family="Fira Sans" font-weight="600" font-size="14" fill="#1F4E5F">oi</text>
<text x="504.0" y="302.0" text-anchor="end" font-family="Fira Sans" font-size="11.5" fill="#5f5e5a">overlapped by</text>
<rect x="528.0" y="212.0" width="203.0" height="112.0" rx="6" fill="#fbfbf9" stroke="#888780" stroke-width="1"/>
<text x="536.0" y="226.0" font-family="Fira Sans" font-size="9.3" fill="#5f5e5a">X = FID1 · Tüngeda (SBK)</text>
<rect x="599.7" y="234.0" width="63.7" height="11" rx="2.5" fill="#1F4E5F"/>
<rect x="599.7" y="249.0" width="95.5" height="11" rx="2.5" fill="#A2560F"/>
<text x="536.0" y="278.0" font-family="Fira Sans" font-size="9.3" fill="#5f5e5a">Y = FID78 · Nowe Objezierze 7 (SBK)</text>
<text x="536.0" y="302.0" font-family="Fira Sans" font-weight="600" font-size="14" fill="#1F4E5F">s</text>
<text x="723.0" y="302.0" text-anchor="end" font-family="Fira Sans" font-size="11.5" fill="#5f5e5a">starts</text>
<rect x="747.0" y="212.0" width="203.0" height="112.0" rx="6" fill="#fbfbf9" stroke="#888780" stroke-width="1"/>
<text x="755.0" y="226.0" font-family="Fira Sans" font-size="9.3" fill="#5f5e5a">X = FID78 · Nowe Objezierze 7 (SBK)</text>
<rect x="818.7" y="234.0" width="63.7" height="11" rx="2.5" fill="#1F4E5F"/>
<rect x="818.7" y="249.0" width="39.8" height="11" rx="2.5" fill="#A2560F"/>
<text x="755.0" y="278.0" font-family="Fira Sans" font-size="9.3" fill="#5f5e5a">Y = FID1 · Tüngeda (SBK)</text>
<text x="755.0" y="302.0" font-family="Fira Sans" font-weight="600" font-size="14" fill="#1F4E5F">si</text>
<text x="942.0" y="302.0" text-anchor="end" font-family="Fira Sans" font-size="11.5" fill="#5f5e5a">started by</text>
<rect x="90.0" y="340.0" width="203.0" height="112.0" rx="6" fill="#fbfbf9" stroke="#888780" stroke-width="1"/>
<text x="98.0" y="354.0" font-family="Fira Sans" font-size="9.3" fill="#5f5e5a">X = FID40 · Bochow 16 (SBK)</text>
<rect x="161.7" y="362.0" width="63.7" height="11" rx="2.5" fill="#1F4E5F"/>
<rect x="137.8" y="377.0" width="119.4" height="11" rx="2.5" fill="#A2560F"/>
<text x="98.0" y="406.0" font-family="Fira Sans" font-size="9.3" fill="#5f5e5a">Y = FID305 · Eichhorst - 8 (Mesolithikum)</text>
<text x="98.0" y="430.0" font-family="Fira Sans" font-weight="600" font-size="14" fill="#1F4E5F">d</text>
<text x="285.0" y="430.0" text-anchor="end" font-family="Fira Sans" font-size="11.5" fill="#5f5e5a">during</text>
<rect x="309.0" y="340.0" width="203.0" height="112.0" rx="6" fill="#fbfbf9" stroke="#888780" stroke-width="1"/>
<text x="317.0" y="354.0" font-family="Fira Sans" font-size="9.3" fill="#5f5e5a">X = FID305 · Eichhorst - 8 (Mesolithikum)</text>
<rect x="380.7" y="362.0" width="63.7" height="11" rx="2.5" fill="#1F4E5F"/>
<rect x="399.8" y="377.0" width="25.5" height="11" rx="2.5" fill="#A2560F"/>
<text x="317.0" y="406.0" font-family="Fira Sans" font-size="9.3" fill="#5f5e5a">Y = FID40 · Bochow 16 (SBK)</text>
<text x="317.0" y="430.0" font-family="Fira Sans" font-weight="600" font-size="14" fill="#1F4E5F">di</text>
<text x="504.0" y="430.0" text-anchor="end" font-family="Fira Sans" font-size="11.5" fill="#5f5e5a">contains</text>
<rect x="528.0" y="340.0" width="203.0" height="112.0" rx="6" fill="#fbfbf9" stroke="#888780" stroke-width="1"/>
<text x="536.0" y="354.0" font-family="Fira Sans" font-size="9.3" fill="#5f5e5a">X = FID49 · Selchow 7 (Rössener Kultur)</text>
<rect x="599.7" y="362.0" width="63.7" height="11" rx="2.5" fill="#1F4E5F"/>
<rect x="567.8" y="377.0" width="95.5" height="11" rx="2.5" fill="#A2560F"/>
<text x="536.0" y="406.0" font-family="Fira Sans" font-size="9.3" fill="#5f5e5a">Y = FID258 · Flemsdorf 10 (Rössener Kultur)</text>
<text x="536.0" y="430.0" font-family="Fira Sans" font-weight="600" font-size="14" fill="#1F4E5F">f</text>
<text x="723.0" y="430.0" text-anchor="end" font-family="Fira Sans" font-size="11.5" fill="#5f5e5a">finishes</text>
<rect x="747.0" y="340.0" width="203.0" height="112.0" rx="6" fill="#fbfbf9" stroke="#888780" stroke-width="1"/>
<text x="755.0" y="354.0" font-family="Fira Sans" font-size="9.3" fill="#5f5e5a">X = FID258 · Flemsdorf 10 (Rössener Kultur)</text>
<rect x="818.7" y="362.0" width="63.7" height="11" rx="2.5" fill="#1F4E5F"/>
<rect x="847.3" y="377.0" width="35.0" height="11" rx="2.5" fill="#A2560F"/>
<text x="755.0" y="406.0" font-family="Fira Sans" font-size="9.3" fill="#5f5e5a">Y = FID49 · Selchow 7 (Rössener Kultur)</text>
<text x="755.0" y="430.0" font-family="Fira Sans" font-weight="600" font-size="14" fill="#1F4E5F">fi</text>
<text x="942.0" y="430.0" text-anchor="end" font-family="Fira Sans" font-size="11.5" fill="#5f5e5a">finished by</text>
<rect x="418.5" y="468.0" width="203.0" height="112.0" rx="6" fill="#fbfbf9" stroke="#888780" stroke-width="1"/>
<text x="426.5" y="482.0" font-family="Fira Sans" font-size="9.3" fill="#5f5e5a">X = FID1 · Tüngeda (SBK)</text>
<rect x="490.2" y="490.0" width="63.7" height="11" rx="2.5" fill="#1F4E5F"/>
<rect x="490.2" y="505.0" width="63.7" height="11" rx="2.5" fill="#A2560F"/>
<text x="426.5" y="534.0" font-family="Fira Sans" font-size="9.3" fill="#5f5e5a">Y = FID2 · Goldbach (SBK)</text>
<text x="426.5" y="558.0" font-family="Fira Sans" font-weight="600" font-size="14" fill="#1F4E5F">=</text>
<text x="613.5" y="558.0" text-anchor="end" font-family="Fira Sans" font-size="11.5" fill="#5f5e5a">equals</text>
<text x="1010" y="42" font-family="Fira Sans" font-weight="500" font-size="15" fill="#2c2c2a">Freksas Nachbarschaftsgitter — sieben berechnete Beispiele</text>
<text x="1010" y="64" font-family="Fira Sans" font-size="11.3" fill="#2c2c2a">Jede echte Datierung trägt einen echten Spielraum (±10 bis ±200 Jahre,</text>
<text x="1010" y="80" font-family="Fira Sans" font-size="11.3" fill="#2c2c2a">siehe 06-uncertainty-dating). Für jedes Paar unten wurde berechnet, nicht</text>
<text x="1010" y="96" font-family="Fira Sans" font-size="11.3" fill="#2c2c2a">geraten, welche der 13 Relationen noch möglich sind — und ob das im Gitter zusammenhängt.</text>
<text x="1077.5" y="141.0" font-family="Fira Sans" font-weight="600" font-size="10.5" fill="#2c2c2a">Legende: alle 13, unausgefüllt</text>
<line x1="1148.1" y1="159.4" x2="1148.1" y2="184.0" stroke="#B6BEB6" stroke-width="1.3"/>
<line x1="1148.1" y1="184.0" x2="1148.1" y2="213.0" stroke="#B6BEB6" stroke-width="1.3"/>
<line x1="1148.1" y1="213.0" x2="1116.8" y2="213.0" stroke="#B6BEB6" stroke-width="1.3"/>
<line x1="1148.1" y1="213.0" x2="1179.3" y2="213.0" stroke="#B6BEB6" stroke-width="1.3"/>
<line x1="1179.3" y1="213.0" x2="1179.3" y2="237.6" stroke="#B6BEB6" stroke-width="1.3"/>
<line x1="1179.3" y1="213.0" x2="1148.1" y2="237.6" stroke="#B6BEB6" stroke-width="1.3"/>
<line x1="1179.3" y1="237.6" x2="1179.3" y2="262.2" stroke="#B6BEB6" stroke-width="1.3"/>
<line x1="1179.3" y1="262.2" x2="1148.1" y2="237.6" stroke="#B6BEB6" stroke-width="1.3"/>
<line x1="1179.3" y1="262.2" x2="1148.1" y2="262.2" stroke="#B6BEB6" stroke-width="1.3"/>
<line x1="1148.1" y1="262.2" x2="1116.8" y2="262.2" stroke="#B6BEB6" stroke-width="1.3"/>
<line x1="1148.1" y1="262.2" x2="1148.1" y2="291.2" stroke="#B6BEB6" stroke-width="1.3"/>
<line x1="1148.1" y1="291.2" x2="1148.1" y2="315.8" stroke="#B6BEB6" stroke-width="1.3"/>
<line x1="1116.8" y1="262.2" x2="1148.1" y2="237.6" stroke="#B6BEB6" stroke-width="1.3"/>
<line x1="1116.8" y1="262.2" x2="1116.8" y2="237.6" stroke="#B6BEB6" stroke-width="1.3"/>
<line x1="1116.8" y1="237.6" x2="1116.8" y2="213.0" stroke="#B6BEB6" stroke-width="1.3"/>
<line x1="1116.8" y1="213.0" x2="1148.1" y2="237.6" stroke="#B6BEB6" stroke-width="1.3"/>
<circle cx="1148.1" cy="159.4" r="19.0" fill="#F4F6F2" stroke="#1F4E5F" stroke-width="1.4"/>
<text x="1148.1" y="166.6" text-anchor="middle" font-family="Fira Sans" font-weight="600" font-size="19.0" fill="#1F4E5F">&lt;</text>
<circle cx="1148.1" cy="184.0" r="19.0" fill="#F4F6F2" stroke="#1F4E5F" stroke-width="1.4"/>
<text x="1148.1" y="191.1" text-anchor="middle" font-family="Fira Sans" font-weight="600" font-size="19.0" fill="#1F4E5F">m</text>
<circle cx="1148.1" cy="213.0" r="19.0" fill="#F4F6F2" stroke="#1F4E5F" stroke-width="1.4"/>
<text x="1148.1" y="220.2" text-anchor="middle" font-family="Fira Sans" font-weight="600" font-size="19.0" fill="#1F4E5F">o</text>
<circle cx="1179.3" cy="213.0" r="19.0" fill="#F4F6F2" stroke="#1F4E5F" stroke-width="1.4"/>
<text x="1179.3" y="220.2" text-anchor="middle" font-family="Fira Sans" font-weight="600" font-size="19.0" fill="#1F4E5F">fi</text>
<circle cx="1179.3" cy="237.6" r="19.0" fill="#F4F6F2" stroke="#1F4E5F" stroke-width="1.4"/>
<text x="1179.3" y="244.8" text-anchor="middle" font-family="Fira Sans" font-weight="600" font-size="19.0" fill="#1F4E5F">di</text>
<circle cx="1179.3" cy="262.2" r="19.0" fill="#F4F6F2" stroke="#1F4E5F" stroke-width="1.4"/>
<text x="1179.3" y="269.3" text-anchor="middle" font-family="Fira Sans" font-weight="600" font-size="19.0" fill="#1F4E5F">si</text>
<circle cx="1148.1" cy="237.6" r="19.0" fill="#F4F6F2" stroke="#1F4E5F" stroke-width="1.4"/>
<text x="1148.1" y="244.8" text-anchor="middle" font-family="Fira Sans" font-weight="600" font-size="19.0" fill="#1F4E5F">=</text>
<circle cx="1116.8" cy="213.0" r="19.0" fill="#F4F6F2" stroke="#1F4E5F" stroke-width="1.4"/>
<text x="1116.8" y="220.2" text-anchor="middle" font-family="Fira Sans" font-weight="600" font-size="19.0" fill="#1F4E5F">s</text>
<circle cx="1116.8" cy="237.6" r="19.0" fill="#F4F6F2" stroke="#1F4E5F" stroke-width="1.4"/>
<text x="1116.8" y="244.8" text-anchor="middle" font-family="Fira Sans" font-weight="600" font-size="19.0" fill="#1F4E5F">d</text>
<circle cx="1116.8" cy="262.2" r="19.0" fill="#F4F6F2" stroke="#1F4E5F" stroke-width="1.4"/>
<text x="1116.8" y="269.3" text-anchor="middle" font-family="Fira Sans" font-weight="600" font-size="19.0" fill="#1F4E5F">f</text>
<circle cx="1148.1" cy="262.2" r="19.0" fill="#F4F6F2" stroke="#1F4E5F" stroke-width="1.4"/>
<text x="1148.1" y="269.3" text-anchor="middle" font-family="Fira Sans" font-weight="600" font-size="19.0" fill="#1F4E5F">oi</text>
<circle cx="1148.1" cy="291.2" r="19.0" fill="#F4F6F2" stroke="#1F4E5F" stroke-width="1.4"/>
<text x="1148.1" y="298.4" text-anchor="middle" font-family="Fira Sans" font-weight="600" font-size="19.0" fill="#1F4E5F">mi</text>
<circle cx="1148.1" cy="315.8" r="19.0" fill="#F4F6F2" stroke="#1F4E5F" stroke-width="1.4"/>
<text x="1148.1" y="323.0" text-anchor="middle" font-family="Fira Sans" font-weight="600" font-size="19.0" fill="#1F4E5F">&gt;</text>
<text x="1270.5" y="141.0" font-family="Fira Sans" font-weight="600" font-size="10.5" fill="#A2560F">{d}</text>
<line x1="1341.1" y1="159.4" x2="1341.1" y2="184.0" stroke="#B6BEB6" stroke-width="1.3"/>
<line x1="1341.1" y1="184.0" x2="1341.1" y2="213.0" stroke="#B6BEB6" stroke-width="1.3"/>
<line x1="1341.1" y1="213.0" x2="1309.8" y2="213.0" stroke="#B6BEB6" stroke-width="1.3"/>
<line x1="1341.1" y1="213.0" x2="1372.3" y2="213.0" stroke="#B6BEB6" stroke-width="1.3"/>
<line x1="1372.3" y1="213.0" x2="1372.3" y2="237.6" stroke="#B6BEB6" stroke-width="1.3"/>
<line x1="1372.3" y1="213.0" x2="1341.1" y2="237.6" stroke="#B6BEB6" stroke-width="1.3"/>
<line x1="1372.3" y1="237.6" x2="1372.3" y2="262.2" stroke="#B6BEB6" stroke-width="1.3"/>
<line x1="1372.3" y1="262.2" x2="1341.1" y2="237.6" stroke="#B6BEB6" stroke-width="1.3"/>
<line x1="1372.3" y1="262.2" x2="1341.1" y2="262.2" stroke="#B6BEB6" stroke-width="1.3"/>
<line x1="1341.1" y1="262.2" x2="1309.8" y2="262.2" stroke="#B6BEB6" stroke-width="1.3"/>
<line x1="1341.1" y1="262.2" x2="1341.1" y2="291.2" stroke="#B6BEB6" stroke-width="1.3"/>
<line x1="1341.1" y1="291.2" x2="1341.1" y2="315.8" stroke="#B6BEB6" stroke-width="1.3"/>
<line x1="1309.8" y1="262.2" x2="1341.1" y2="237.6" stroke="#B6BEB6" stroke-width="1.3"/>
<line x1="1309.8" y1="262.2" x2="1309.8" y2="237.6" stroke="#B6BEB6" stroke-width="1.3"/>
<line x1="1309.8" y1="237.6" x2="1309.8" y2="213.0" stroke="#B6BEB6" stroke-width="1.3"/>
<line x1="1309.8" y1="213.0" x2="1341.1" y2="237.6" stroke="#B6BEB6" stroke-width="1.3"/>
<circle cx="1341.1" cy="159.4" r="8.0" fill="#F4F6F2" stroke="#98A398" stroke-width="1.4"/>
<circle cx="1341.1" cy="184.0" r="8.0" fill="#F4F6F2" stroke="#98A398" stroke-width="1.4"/>
<circle cx="1341.1" cy="213.0" r="8.0" fill="#F4F6F2" stroke="#98A398" stroke-width="1.4"/>
<circle cx="1372.3" cy="213.0" r="8.0" fill="#F4F6F2" stroke="#98A398" stroke-width="1.4"/>
<circle cx="1372.3" cy="237.6" r="8.0" fill="#F4F6F2" stroke="#98A398" stroke-width="1.4"/>
<circle cx="1372.3" cy="262.2" r="8.0" fill="#F4F6F2" stroke="#98A398" stroke-width="1.4"/>
<circle cx="1341.1" cy="237.6" r="8.0" fill="#F4F6F2" stroke="#98A398" stroke-width="1.4"/>
<circle cx="1309.8" cy="213.0" r="8.0" fill="#F4F6F2" stroke="#98A398" stroke-width="1.4"/>
<circle cx="1309.8" cy="237.6" r="8.0" fill="#A2560F" stroke="#A2560F" stroke-width="1.4"/>
<circle cx="1309.8" cy="262.2" r="8.0" fill="#F4F6F2" stroke="#98A398" stroke-width="1.4"/>
<circle cx="1341.1" cy="262.2" r="8.0" fill="#F4F6F2" stroke="#98A398" stroke-width="1.4"/>
<circle cx="1341.1" cy="291.2" r="8.0" fill="#F4F6F2" stroke="#98A398" stroke-width="1.4"/>
<circle cx="1341.1" cy="315.8" r="8.0" fill="#F4F6F2" stroke="#98A398" stroke-width="1.4"/>
<text x="1270.5" y="347.7" font-family="Fira Sans" font-size="9.3" fill="#5f5e5a">FID40 Bochow 16 × FID305 Eichhorst - 8</text>
<text x="1270.5" y="361.7" font-family="Fira Sans" font-size="9.3" fill="#5f5e5a">scharf: d · 100/100 · 100/100 J.</text>
<text x="1463.5" y="141.0" font-family="Fira Sans" font-weight="600" font-size="10.5" fill="#A2560F">{d,o,s}</text>
<line x1="1534.1" y1="159.4" x2="1534.1" y2="184.0" stroke="#B6BEB6" stroke-width="1.3"/>
<line x1="1534.1" y1="184.0" x2="1534.1" y2="213.0" stroke="#B6BEB6" stroke-width="1.3"/>
<line x1="1534.1" y1="213.0" x2="1502.8" y2="213.0" stroke="#B6BEB6" stroke-width="1.3"/>
<line x1="1534.1" y1="213.0" x2="1565.3" y2="213.0" stroke="#B6BEB6" stroke-width="1.3"/>
<line x1="1565.3" y1="213.0" x2="1565.3" y2="237.6" stroke="#B6BEB6" stroke-width="1.3"/>
<line x1="1565.3" y1="213.0" x2="1534.1" y2="237.6" stroke="#B6BEB6" stroke-width="1.3"/>
<line x1="1565.3" y1="237.6" x2="1565.3" y2="262.2" stroke="#B6BEB6" stroke-width="1.3"/>
<line x1="1565.3" y1="262.2" x2="1534.1" y2="237.6" stroke="#B6BEB6" stroke-width="1.3"/>
<line x1="1565.3" y1="262.2" x2="1534.1" y2="262.2" stroke="#B6BEB6" stroke-width="1.3"/>
<line x1="1534.1" y1="262.2" x2="1502.8" y2="262.2" stroke="#B6BEB6" stroke-width="1.3"/>
<line x1="1534.1" y1="262.2" x2="1534.1" y2="291.2" stroke="#B6BEB6" stroke-width="1.3"/>
<line x1="1534.1" y1="291.2" x2="1534.1" y2="315.8" stroke="#B6BEB6" stroke-width="1.3"/>
<line x1="1502.8" y1="262.2" x2="1534.1" y2="237.6" stroke="#B6BEB6" stroke-width="1.3"/>
<line x1="1502.8" y1="262.2" x2="1502.8" y2="237.6" stroke="#B6BEB6" stroke-width="1.3"/>
<line x1="1502.8" y1="237.6" x2="1502.8" y2="213.0" stroke="#B6BEB6" stroke-width="1.3"/>
<line x1="1502.8" y1="213.0" x2="1534.1" y2="237.6" stroke="#B6BEB6" stroke-width="1.3"/>
<circle cx="1534.1" cy="159.4" r="8.0" fill="#F4F6F2" stroke="#98A398" stroke-width="1.4"/>
<circle cx="1534.1" cy="184.0" r="8.0" fill="#F4F6F2" stroke="#98A398" stroke-width="1.4"/>
<circle cx="1534.1" cy="213.0" r="8.0" fill="#A2560F" stroke="#A2560F" stroke-width="1.4"/>
<circle cx="1565.3" cy="213.0" r="8.0" fill="#F4F6F2" stroke="#98A398" stroke-width="1.4"/>
<circle cx="1565.3" cy="237.6" r="8.0" fill="#F4F6F2" stroke="#98A398" stroke-width="1.4"/>
<circle cx="1565.3" cy="262.2" r="8.0" fill="#F4F6F2" stroke="#98A398" stroke-width="1.4"/>
<circle cx="1534.1" cy="237.6" r="8.0" fill="#F4F6F2" stroke="#98A398" stroke-width="1.4"/>
<circle cx="1502.8" cy="213.0" r="8.0" fill="#A2560F" stroke="#A2560F" stroke-width="1.4"/>
<circle cx="1502.8" cy="237.6" r="8.0" fill="#A2560F" stroke="#A2560F" stroke-width="1.4"/>
<circle cx="1502.8" cy="262.2" r="8.0" fill="#F4F6F2" stroke="#98A398" stroke-width="1.4"/>
<circle cx="1534.1" cy="262.2" r="8.0" fill="#F4F6F2" stroke="#98A398" stroke-width="1.4"/>
<circle cx="1534.1" cy="291.2" r="8.0" fill="#F4F6F2" stroke="#98A398" stroke-width="1.4"/>
<circle cx="1534.1" cy="315.8" r="8.0" fill="#F4F6F2" stroke="#98A398" stroke-width="1.4"/>
<text x="1463.5" y="347.7" font-family="Fira Sans" font-size="9.3" fill="#5f5e5a">FID40 Bochow 16 × FID78 Nowe Objezierze 7</text>
<text x="1463.5" y="361.7" font-family="Fira Sans" font-size="9.3" fill="#5f5e5a">scharf: o · 100/100 · 100/100 J.</text>
<text x="1077.5" y="402.7" font-family="Fira Sans" font-weight="600" font-size="10.5" fill="#A2560F">{&lt;,m,o}</text>
<line x1="1148.1" y1="421.1" x2="1148.1" y2="445.7" stroke="#B6BEB6" stroke-width="1.3"/>
<line x1="1148.1" y1="445.7" x2="1148.1" y2="474.7" stroke="#B6BEB6" stroke-width="1.3"/>
<line x1="1148.1" y1="474.7" x2="1116.8" y2="474.7" stroke="#B6BEB6" stroke-width="1.3"/>
<line x1="1148.1" y1="474.7" x2="1179.3" y2="474.7" stroke="#B6BEB6" stroke-width="1.3"/>
<line x1="1179.3" y1="474.7" x2="1179.3" y2="499.3" stroke="#B6BEB6" stroke-width="1.3"/>
<line x1="1179.3" y1="474.7" x2="1148.1" y2="499.3" stroke="#B6BEB6" stroke-width="1.3"/>
<line x1="1179.3" y1="499.3" x2="1179.3" y2="523.9" stroke="#B6BEB6" stroke-width="1.3"/>
<line x1="1179.3" y1="523.9" x2="1148.1" y2="499.3" stroke="#B6BEB6" stroke-width="1.3"/>
<line x1="1179.3" y1="523.9" x2="1148.1" y2="523.9" stroke="#B6BEB6" stroke-width="1.3"/>
<line x1="1148.1" y1="523.9" x2="1116.8" y2="523.9" stroke="#B6BEB6" stroke-width="1.3"/>
<line x1="1148.1" y1="523.9" x2="1148.1" y2="552.9" stroke="#B6BEB6" stroke-width="1.3"/>
<line x1="1148.1" y1="552.9" x2="1148.1" y2="577.5" stroke="#B6BEB6" stroke-width="1.3"/>
<line x1="1116.8" y1="523.9" x2="1148.1" y2="499.3" stroke="#B6BEB6" stroke-width="1.3"/>
<line x1="1116.8" y1="523.9" x2="1116.8" y2="499.3" stroke="#B6BEB6" stroke-width="1.3"/>
<line x1="1116.8" y1="499.3" x2="1116.8" y2="474.7" stroke="#B6BEB6" stroke-width="1.3"/>
<line x1="1116.8" y1="474.7" x2="1148.1" y2="499.3" stroke="#B6BEB6" stroke-width="1.3"/>
<circle cx="1148.1" cy="421.1" r="8.0" fill="#A2560F" stroke="#A2560F" stroke-width="1.4"/>
<circle cx="1148.1" cy="445.7" r="8.0" fill="#A2560F" stroke="#A2560F" stroke-width="1.4"/>
<circle cx="1148.1" cy="474.7" r="8.0" fill="#A2560F" stroke="#A2560F" stroke-width="1.4"/>
<circle cx="1179.3" cy="474.7" r="8.0" fill="#F4F6F2" stroke="#98A398" stroke-width="1.4"/>
<circle cx="1179.3" cy="499.3" r="8.0" fill="#F4F6F2" stroke="#98A398" stroke-width="1.4"/>
<circle cx="1179.3" cy="523.9" r="8.0" fill="#F4F6F2" stroke="#98A398" stroke-width="1.4"/>
<circle cx="1148.1" cy="499.3" r="8.0" fill="#F4F6F2" stroke="#98A398" stroke-width="1.4"/>
<circle cx="1116.8" cy="474.7" r="8.0" fill="#F4F6F2" stroke="#98A398" stroke-width="1.4"/>
<circle cx="1116.8" cy="499.3" r="8.0" fill="#F4F6F2" stroke="#98A398" stroke-width="1.4"/>
<circle cx="1116.8" cy="523.9" r="8.0" fill="#F4F6F2" stroke="#98A398" stroke-width="1.4"/>
<circle cx="1148.1" cy="523.9" r="8.0" fill="#F4F6F2" stroke="#98A398" stroke-width="1.4"/>
<circle cx="1148.1" cy="552.9" r="8.0" fill="#F4F6F2" stroke="#98A398" stroke-width="1.4"/>
<circle cx="1148.1" cy="577.5" r="8.0" fill="#F4F6F2" stroke="#98A398" stroke-width="1.4"/>
<text x="1077.5" y="609.4" font-family="Fira Sans" font-size="9.3" fill="#5f5e5a">FID78 Nowe Objezierze 7 × FID153 Racot 18</text>
<text x="1077.5" y="623.4" font-family="Fira Sans" font-size="9.3" fill="#5f5e5a">scharf: m · 100/100 · 50/100 J.</text>
<text x="1270.5" y="402.7" font-family="Fira Sans" font-weight="600" font-size="10.5" fill="#A2560F">{&lt;,m,o}</text>
<line x1="1341.1" y1="421.1" x2="1341.1" y2="445.7" stroke="#B6BEB6" stroke-width="1.3"/>
<line x1="1341.1" y1="445.7" x2="1341.1" y2="474.7" stroke="#B6BEB6" stroke-width="1.3"/>
<line x1="1341.1" y1="474.7" x2="1309.8" y2="474.7" stroke="#B6BEB6" stroke-width="1.3"/>
<line x1="1341.1" y1="474.7" x2="1372.3" y2="474.7" stroke="#B6BEB6" stroke-width="1.3"/>
<line x1="1372.3" y1="474.7" x2="1372.3" y2="499.3" stroke="#B6BEB6" stroke-width="1.3"/>
<line x1="1372.3" y1="474.7" x2="1341.1" y2="499.3" stroke="#B6BEB6" stroke-width="1.3"/>
<line x1="1372.3" y1="499.3" x2="1372.3" y2="523.9" stroke="#B6BEB6" stroke-width="1.3"/>
<line x1="1372.3" y1="523.9" x2="1341.1" y2="499.3" stroke="#B6BEB6" stroke-width="1.3"/>
<line x1="1372.3" y1="523.9" x2="1341.1" y2="523.9" stroke="#B6BEB6" stroke-width="1.3"/>
<line x1="1341.1" y1="523.9" x2="1309.8" y2="523.9" stroke="#B6BEB6" stroke-width="1.3"/>
<line x1="1341.1" y1="523.9" x2="1341.1" y2="552.9" stroke="#B6BEB6" stroke-width="1.3"/>
<line x1="1341.1" y1="552.9" x2="1341.1" y2="577.5" stroke="#B6BEB6" stroke-width="1.3"/>
<line x1="1309.8" y1="523.9" x2="1341.1" y2="499.3" stroke="#B6BEB6" stroke-width="1.3"/>
<line x1="1309.8" y1="523.9" x2="1309.8" y2="499.3" stroke="#B6BEB6" stroke-width="1.3"/>
<line x1="1309.8" y1="499.3" x2="1309.8" y2="474.7" stroke="#B6BEB6" stroke-width="1.3"/>
<line x1="1309.8" y1="474.7" x2="1341.1" y2="499.3" stroke="#B6BEB6" stroke-width="1.3"/>
<circle cx="1341.1" cy="421.1" r="8.0" fill="#A2560F" stroke="#A2560F" stroke-width="1.4"/>
<circle cx="1341.1" cy="445.7" r="8.0" fill="#A2560F" stroke="#A2560F" stroke-width="1.4"/>
<circle cx="1341.1" cy="474.7" r="8.0" fill="#A2560F" stroke="#A2560F" stroke-width="1.4"/>
<circle cx="1372.3" cy="474.7" r="8.0" fill="#F4F6F2" stroke="#98A398" stroke-width="1.4"/>
<circle cx="1372.3" cy="499.3" r="8.0" fill="#F4F6F2" stroke="#98A398" stroke-width="1.4"/>
<circle cx="1372.3" cy="523.9" r="8.0" fill="#F4F6F2" stroke="#98A398" stroke-width="1.4"/>
<circle cx="1341.1" cy="499.3" r="8.0" fill="#F4F6F2" stroke="#98A398" stroke-width="1.4"/>
<circle cx="1309.8" cy="474.7" r="8.0" fill="#F4F6F2" stroke="#98A398" stroke-width="1.4"/>
<circle cx="1309.8" cy="499.3" r="8.0" fill="#F4F6F2" stroke="#98A398" stroke-width="1.4"/>
<circle cx="1309.8" cy="523.9" r="8.0" fill="#F4F6F2" stroke="#98A398" stroke-width="1.4"/>
<circle cx="1341.1" cy="523.9" r="8.0" fill="#F4F6F2" stroke="#98A398" stroke-width="1.4"/>
<circle cx="1341.1" cy="552.9" r="8.0" fill="#F4F6F2" stroke="#98A398" stroke-width="1.4"/>
<circle cx="1341.1" cy="577.5" r="8.0" fill="#F4F6F2" stroke="#98A398" stroke-width="1.4"/>
<text x="1270.5" y="609.4" font-family="Fira Sans" font-size="9.3" fill="#5f5e5a">FID40 Bochow 16 × FID32 Steckelsdorf 12</text>
<text x="1270.5" y="623.4" font-family="Fira Sans" font-size="9.3" fill="#5f5e5a">scharf: &lt; · 100/100 · 100/100 J.</text>
<text x="1463.5" y="402.7" font-family="Fira Sans" font-weight="600" font-size="10.5" fill="#A2560F">{&lt;,d,m,o,s}</text>
<line x1="1534.1" y1="421.1" x2="1534.1" y2="445.7" stroke="#B6BEB6" stroke-width="1.3"/>
<line x1="1534.1" y1="445.7" x2="1534.1" y2="474.7" stroke="#B6BEB6" stroke-width="1.3"/>
<line x1="1534.1" y1="474.7" x2="1502.8" y2="474.7" stroke="#B6BEB6" stroke-width="1.3"/>
<line x1="1534.1" y1="474.7" x2="1565.3" y2="474.7" stroke="#B6BEB6" stroke-width="1.3"/>
<line x1="1565.3" y1="474.7" x2="1565.3" y2="499.3" stroke="#B6BEB6" stroke-width="1.3"/>
<line x1="1565.3" y1="474.7" x2="1534.1" y2="499.3" stroke="#B6BEB6" stroke-width="1.3"/>
<line x1="1565.3" y1="499.3" x2="1565.3" y2="523.9" stroke="#B6BEB6" stroke-width="1.3"/>
<line x1="1565.3" y1="523.9" x2="1534.1" y2="499.3" stroke="#B6BEB6" stroke-width="1.3"/>
<line x1="1565.3" y1="523.9" x2="1534.1" y2="523.9" stroke="#B6BEB6" stroke-width="1.3"/>
<line x1="1534.1" y1="523.9" x2="1502.8" y2="523.9" stroke="#B6BEB6" stroke-width="1.3"/>
<line x1="1534.1" y1="523.9" x2="1534.1" y2="552.9" stroke="#B6BEB6" stroke-width="1.3"/>
<line x1="1534.1" y1="552.9" x2="1534.1" y2="577.5" stroke="#B6BEB6" stroke-width="1.3"/>
<line x1="1502.8" y1="523.9" x2="1534.1" y2="499.3" stroke="#B6BEB6" stroke-width="1.3"/>
<line x1="1502.8" y1="523.9" x2="1502.8" y2="499.3" stroke="#B6BEB6" stroke-width="1.3"/>
<line x1="1502.8" y1="499.3" x2="1502.8" y2="474.7" stroke="#B6BEB6" stroke-width="1.3"/>
<line x1="1502.8" y1="474.7" x2="1534.1" y2="499.3" stroke="#B6BEB6" stroke-width="1.3"/>
<circle cx="1534.1" cy="421.1" r="8.0" fill="#A2560F" stroke="#A2560F" stroke-width="1.4"/>
<circle cx="1534.1" cy="445.7" r="8.0" fill="#A2560F" stroke="#A2560F" stroke-width="1.4"/>
<circle cx="1534.1" cy="474.7" r="8.0" fill="#A2560F" stroke="#A2560F" stroke-width="1.4"/>
<circle cx="1565.3" cy="474.7" r="8.0" fill="#F4F6F2" stroke="#98A398" stroke-width="1.4"/>
<circle cx="1565.3" cy="499.3" r="8.0" fill="#F4F6F2" stroke="#98A398" stroke-width="1.4"/>
<circle cx="1565.3" cy="523.9" r="8.0" fill="#F4F6F2" stroke="#98A398" stroke-width="1.4"/>
<circle cx="1534.1" cy="499.3" r="8.0" fill="#F4F6F2" stroke="#98A398" stroke-width="1.4"/>
<circle cx="1502.8" cy="474.7" r="8.0" fill="#A2560F" stroke="#A2560F" stroke-width="1.4"/>
<circle cx="1502.8" cy="499.3" r="8.0" fill="#A2560F" stroke="#A2560F" stroke-width="1.4"/>
<circle cx="1502.8" cy="523.9" r="8.0" fill="#F4F6F2" stroke="#98A398" stroke-width="1.4"/>
<circle cx="1534.1" cy="523.9" r="8.0" fill="#F4F6F2" stroke="#98A398" stroke-width="1.4"/>
<circle cx="1534.1" cy="552.9" r="8.0" fill="#F4F6F2" stroke="#98A398" stroke-width="1.4"/>
<circle cx="1534.1" cy="577.5" r="8.0" fill="#F4F6F2" stroke="#98A398" stroke-width="1.4"/>
<text x="1463.5" y="609.4" font-family="Fira Sans" font-size="9.3" fill="#5f5e5a">FID1 Tüngeda × FID78 Nowe Objezierze 7</text>
<text x="1463.5" y="623.4" font-family="Fira Sans" font-size="9.3" fill="#5f5e5a">scharf: s · 100/100 · 100/100 J.</text>
<text x="1077.5" y="664.4" font-family="Fira Sans" font-weight="600" font-size="10.5" fill="#A2560F">{=,d,di,f,fi,mi,o,oi,s,si}</text>
<line x1="1148.1" y1="682.8" x2="1148.1" y2="707.4" stroke="#B6BEB6" stroke-width="1.3"/>
<line x1="1148.1" y1="707.4" x2="1148.1" y2="736.4" stroke="#B6BEB6" stroke-width="1.3"/>
<line x1="1148.1" y1="736.4" x2="1116.8" y2="736.4" stroke="#B6BEB6" stroke-width="1.3"/>
<line x1="1148.1" y1="736.4" x2="1179.3" y2="736.4" stroke="#B6BEB6" stroke-width="1.3"/>
<line x1="1179.3" y1="736.4" x2="1179.3" y2="761.0" stroke="#B6BEB6" stroke-width="1.3"/>
<line x1="1179.3" y1="736.4" x2="1148.1" y2="761.0" stroke="#B6BEB6" stroke-width="1.3"/>
<line x1="1179.3" y1="761.0" x2="1179.3" y2="785.6" stroke="#B6BEB6" stroke-width="1.3"/>
<line x1="1179.3" y1="785.6" x2="1148.1" y2="761.0" stroke="#B6BEB6" stroke-width="1.3"/>
<line x1="1179.3" y1="785.6" x2="1148.1" y2="785.6" stroke="#B6BEB6" stroke-width="1.3"/>
<line x1="1148.1" y1="785.6" x2="1116.8" y2="785.6" stroke="#B6BEB6" stroke-width="1.3"/>
<line x1="1148.1" y1="785.6" x2="1148.1" y2="814.6" stroke="#B6BEB6" stroke-width="1.3"/>
<line x1="1148.1" y1="814.6" x2="1148.1" y2="839.2" stroke="#B6BEB6" stroke-width="1.3"/>
<line x1="1116.8" y1="785.6" x2="1148.1" y2="761.0" stroke="#B6BEB6" stroke-width="1.3"/>
<line x1="1116.8" y1="785.6" x2="1116.8" y2="761.0" stroke="#B6BEB6" stroke-width="1.3"/>
<line x1="1116.8" y1="761.0" x2="1116.8" y2="736.4" stroke="#B6BEB6" stroke-width="1.3"/>
<line x1="1116.8" y1="736.4" x2="1148.1" y2="761.0" stroke="#B6BEB6" stroke-width="1.3"/>
<circle cx="1148.1" cy="682.8" r="8.0" fill="#F4F6F2" stroke="#98A398" stroke-width="1.4"/>
<circle cx="1148.1" cy="707.4" r="8.0" fill="#F4F6F2" stroke="#98A398" stroke-width="1.4"/>
<circle cx="1148.1" cy="736.4" r="8.0" fill="#A2560F" stroke="#A2560F" stroke-width="1.4"/>
<circle cx="1179.3" cy="736.4" r="8.0" fill="#A2560F" stroke="#A2560F" stroke-width="1.4"/>
<circle cx="1179.3" cy="761.0" r="8.0" fill="#A2560F" stroke="#A2560F" stroke-width="1.4"/>
<circle cx="1179.3" cy="785.6" r="8.0" fill="#A2560F" stroke="#A2560F" stroke-width="1.4"/>
<circle cx="1148.1" cy="761.0" r="8.0" fill="#A2560F" stroke="#A2560F" stroke-width="1.4"/>
<circle cx="1116.8" cy="736.4" r="8.0" fill="#A2560F" stroke="#A2560F" stroke-width="1.4"/>
<circle cx="1116.8" cy="761.0" r="8.0" fill="#A2560F" stroke="#A2560F" stroke-width="1.4"/>
<circle cx="1116.8" cy="785.6" r="8.0" fill="#A2560F" stroke="#A2560F" stroke-width="1.4"/>
<circle cx="1148.1" cy="785.6" r="8.0" fill="#A2560F" stroke="#A2560F" stroke-width="1.4"/>
<circle cx="1148.1" cy="814.6" r="8.0" fill="#A2560F" stroke="#A2560F" stroke-width="1.4"/>
<circle cx="1148.1" cy="839.2" r="8.0" fill="#F4F6F2" stroke="#98A398" stroke-width="1.4"/>
<text x="1077.5" y="871.1" font-family="Fira Sans" font-size="9.3" fill="#5f5e5a">FID49 Selchow 7 × FID258 Flemsdorf 10</text>
<text x="1077.5" y="885.1" font-family="Fira Sans" font-size="9.3" fill="#5f5e5a">scharf: f · 100/100 · 100/100 J.</text>
<text x="1270.5" y="664.4" font-family="Fira Sans" font-weight="600" font-size="10.5" fill="#A2560F">alle 13</text>
<line x1="1341.1" y1="682.8" x2="1341.1" y2="707.4" stroke="#B6BEB6" stroke-width="1.3"/>
<line x1="1341.1" y1="707.4" x2="1341.1" y2="736.4" stroke="#B6BEB6" stroke-width="1.3"/>
<line x1="1341.1" y1="736.4" x2="1309.8" y2="736.4" stroke="#B6BEB6" stroke-width="1.3"/>
<line x1="1341.1" y1="736.4" x2="1372.3" y2="736.4" stroke="#B6BEB6" stroke-width="1.3"/>
<line x1="1372.3" y1="736.4" x2="1372.3" y2="761.0" stroke="#B6BEB6" stroke-width="1.3"/>
<line x1="1372.3" y1="736.4" x2="1341.1" y2="761.0" stroke="#B6BEB6" stroke-width="1.3"/>
<line x1="1372.3" y1="761.0" x2="1372.3" y2="785.6" stroke="#B6BEB6" stroke-width="1.3"/>
<line x1="1372.3" y1="785.6" x2="1341.1" y2="761.0" stroke="#B6BEB6" stroke-width="1.3"/>
<line x1="1372.3" y1="785.6" x2="1341.1" y2="785.6" stroke="#B6BEB6" stroke-width="1.3"/>
<line x1="1341.1" y1="785.6" x2="1309.8" y2="785.6" stroke="#B6BEB6" stroke-width="1.3"/>
<line x1="1341.1" y1="785.6" x2="1341.1" y2="814.6" stroke="#B6BEB6" stroke-width="1.3"/>
<line x1="1341.1" y1="814.6" x2="1341.1" y2="839.2" stroke="#B6BEB6" stroke-width="1.3"/>
<line x1="1309.8" y1="785.6" x2="1341.1" y2="761.0" stroke="#B6BEB6" stroke-width="1.3"/>
<line x1="1309.8" y1="785.6" x2="1309.8" y2="761.0" stroke="#B6BEB6" stroke-width="1.3"/>
<line x1="1309.8" y1="761.0" x2="1309.8" y2="736.4" stroke="#B6BEB6" stroke-width="1.3"/>
<line x1="1309.8" y1="736.4" x2="1341.1" y2="761.0" stroke="#B6BEB6" stroke-width="1.3"/>
<circle cx="1341.1" cy="682.8" r="8.0" fill="#A2560F" stroke="#A2560F" stroke-width="1.4"/>
<circle cx="1341.1" cy="707.4" r="8.0" fill="#A2560F" stroke="#A2560F" stroke-width="1.4"/>
<circle cx="1341.1" cy="736.4" r="8.0" fill="#A2560F" stroke="#A2560F" stroke-width="1.4"/>
<circle cx="1372.3" cy="736.4" r="8.0" fill="#A2560F" stroke="#A2560F" stroke-width="1.4"/>
<circle cx="1372.3" cy="761.0" r="8.0" fill="#A2560F" stroke="#A2560F" stroke-width="1.4"/>
<circle cx="1372.3" cy="785.6" r="8.0" fill="#A2560F" stroke="#A2560F" stroke-width="1.4"/>
<circle cx="1341.1" cy="761.0" r="8.0" fill="#A2560F" stroke="#A2560F" stroke-width="1.4"/>
<circle cx="1309.8" cy="736.4" r="8.0" fill="#A2560F" stroke="#A2560F" stroke-width="1.4"/>
<circle cx="1309.8" cy="761.0" r="8.0" fill="#A2560F" stroke="#A2560F" stroke-width="1.4"/>
<circle cx="1309.8" cy="785.6" r="8.0" fill="#A2560F" stroke="#A2560F" stroke-width="1.4"/>
<circle cx="1341.1" cy="785.6" r="8.0" fill="#A2560F" stroke="#A2560F" stroke-width="1.4"/>
<circle cx="1341.1" cy="814.6" r="8.0" fill="#A2560F" stroke="#A2560F" stroke-width="1.4"/>
<circle cx="1341.1" cy="839.2" r="8.0" fill="#A2560F" stroke="#A2560F" stroke-width="1.4"/>
<text x="1270.5" y="871.1" font-family="Fira Sans" font-size="9.3" fill="#5f5e5a">FID1 Tüngeda × FID2 Goldbach</text>
<text x="1270.5" y="885.1" font-family="Fira Sans" font-size="9.3" fill="#5f5e5a">scharf: = · 100/100 · 100/100 J.</text>
<text x="1010" y="911.1" font-family="Fira Sans" font-size="10.3" fill="#5f5e5a">Alle sieben Ergebnismengen sind zusammenhängend (Freksas Nachbarschafts-Theorem, nicht so gewählt) —</text>
<text x="1010" y="926.1" font-family="Fira Sans" font-size="10.3" fill="#5f5e5a">auch das „equals“-Paar (FID1 × FID2, alle 13 erreichbar): die volle Menge aller 13 ist trivial</text>
<text x="1010" y="941.1" font-family="Fira Sans" font-size="10.3" fill="#5f5e5a">zusammenhängend, sagt dann aber nichts mehr aus.</text>
</svg>
